<svg width="28" height="28" viewBox="0 0 28 28" fill="none" xmlns="http://www.w3.org/2000/svg">
<path d="M14.5226 10.9564C14.4057 10.946 14.2911 10.9395 14.1837 10.9311C13.84 10.908 13.5207 10.8849 13.1599 10.8071C13.3183 10.9817 13.5134 11.1204 13.7815 11.2276C14.1495 11.3727 14.681 11.4485 15.0659 11.2214C15.0659 11.2214 15.0659 11.2214 15.0659 11.2194L15.0708 11.2174C15.1756 11.1185 15.2853 11.0261 15.3999 10.9357C15.1272 10.9731 14.837 10.9815 14.5226 10.9564Z" fill="#F9A70E"/>
<path d="M11.2822 4.87804C11.3661 4.76876 11.5216 4.7462 11.6303 4.82839C11.739 4.91296 11.7612 5.06714 11.6796 5.17642C11.6746 5.18378 11.6697 5.18877 11.6647 5.19638C11.8499 5.1567 12.0399 5.13176 12.2373 5.13176C12.2447 5.13176 12.2522 5.13176 12.2595 5.13176C13.1258 5.14174 13.5456 5.62161 13.9897 6.13118L14.1107 6.27039C14.2168 6.39226 14.3302 6.50653 14.4439 6.62103C14.5748 6.23309 14.75 5.85775 14.9696 5.49974C15.0116 5.43251 15.0585 5.35792 15.1201 5.29092C15.0338 4.76378 14.9029 4.23686 14.5005 3.89121C13.9847 3.44626 13.1998 3.5009 12.6371 3.69974C11.6991 4.03042 10.6749 4.51267 10.0801 5.94731C10.3813 5.73588 10.697 5.54702 11.0279 5.40282C11.0551 5.19115 11.1143 5.1042 11.2822 4.87804Z" fill="#F9A70E"/>
<path d="M15.9283 7.84684L16.0293 7.90839C16.4382 8.16163 16.9339 8.47384 17.0396 9.13278C17.0513 9.1107 17.0655 9.09097 17.0771 9.07123C17.2534 8.77124 17.4319 8.45175 17.5423 8.13461C17.6128 7.92812 17.796 7.55695 17.8596 7.42892C18.078 6.97905 17.6645 6.33232 17.3028 6.02505C16.854 5.64401 16.2595 5.44973 15.7543 5.51856C15.6744 5.52843 15.5758 5.54816 15.51 5.59726C15.4537 5.63908 15.4043 5.71777 15.3596 5.79389C15.1293 6.18244 14.9578 6.59285 14.8403 7.0157C15.1811 7.32556 15.5431 7.60581 15.9283 7.84684Z" fill="#F9A70E"/>
<path d="M16.7418 10.4595C16.4818 10.7515 16.1966 11.0338 15.8937 11.2941C15.696 11.4646 15.521 11.6178 15.3583 11.7905L15.3308 11.8198C15.1881 11.973 15.113 12.0583 15.1206 12.1799C15.1532 12.6616 15.6659 13.1117 16.1213 13.2505C16.7292 13.4379 17.2895 13.2433 17.9476 12.613C18.1426 12.4257 18.3329 12.2359 18.5229 12.0437C18.5555 12.0072 18.588 11.9732 18.6231 11.9367L18.8507 11.6933C19.0233 11.5085 19.2133 11.3065 19.6536 10.8199L19.7686 10.6934C20.0162 10.4184 20.1838 10.2359 20.339 10.1338C20.349 10.1119 20.3614 10.0901 20.3664 10.0706C20.5366 9.57419 20.404 8.91486 20.0511 8.50614C19.8434 8.26273 19.5508 8.06093 19.1806 7.90284C19.0904 7.86401 18.6802 7.7373 18.4376 7.7373C18.4151 7.7373 18.3977 7.73963 18.385 7.73963C18.2999 7.89772 18.1323 8.21902 18.0747 8.37711C17.9421 8.73235 17.737 9.07295 17.5369 9.39169C17.3072 9.76134 17.0371 10.1212 16.7418 10.4595Z" fill="#F9A70E"/>
<path d="M18.9723 15.2597C18.8247 15.3086 18.5763 15.3917 18.2909 15.3917C17.8013 15.3917 17.3955 15.157 17.0878 14.6927L17.0806 14.6904C16.7115 14.2821 16.5665 13.9059 16.6426 13.571C16.5984 13.5759 16.554 13.5808 16.5072 13.5808C16.3204 13.5808 16.1283 13.549 15.9389 13.4904C15.7593 13.4341 15.5747 13.3414 15.4001 13.2216C15.6831 13.9425 15.897 14.781 15.7322 15.4702C15.4198 16.7876 14.795 17.6723 14.5071 17.9558C14.4603 18.0023 14.3964 18.0266 14.3348 18.0266C14.2708 18.0266 14.2069 18.0021 14.1601 17.9558C14.0642 17.858 14.0642 17.7041 14.1601 17.6088C14.3644 17.4084 14.9572 16.6115 15.2548 15.3576C15.4271 14.6292 15.0999 13.5098 14.2831 12.0312C14.2535 11.9798 14.2314 11.9408 14.2165 11.9114C14.2116 11.9015 14.2116 11.8917 14.2093 11.8845C13.9657 11.8625 13.7123 11.799 13.4662 11.6864C12.8783 11.4176 12.5709 11.0169 12.3076 10.4986C12.1699 10.44 12.0295 10.3739 11.8746 10.2908L11.8673 10.298C11.2449 10.7649 10.9621 10.9774 9.82299 11.0117C9.6876 11.019 9.57453 10.909 9.56959 10.7747C9.56724 10.6402 9.67302 10.5252 9.80818 10.5229C10.775 10.4935 10.9668 10.3615 11.5451 9.92643C11.3163 9.38132 11.4689 8.95603 11.5032 8.86798C11.5573 8.74327 11.7 8.68465 11.8255 8.73603C11.951 8.78741 12.01 8.93151 11.9583 9.05622C11.9534 9.07094 11.8229 9.39837 12.0394 9.82133C12.9373 10.3127 13.4366 10.3566 14.1157 10.4103C14.2288 10.4176 14.3444 10.4274 14.465 10.4398C15.0529 10.4961 15.85 10.4374 16.3222 9.83838C16.4771 9.64523 16.5585 9.40818 16.551 9.17603C16.5361 8.64074 16.1549 8.4184 15.712 8.15916L15.6039 8.09564C14.8634 7.65563 14.1942 7.10586 13.6185 6.46056L13.4956 6.32114C13.0652 5.83465 12.7798 5.51212 12.1377 5.50488C12.1304 5.50488 12.1254 5.50488 12.1179 5.50488C11.097 5.50488 10.1573 6.25527 9.33077 6.91762C9.16834 7.04467 9.01109 7.17172 8.85594 7.28919C8.66907 7.43329 8.46974 7.57015 8.26053 7.71449C7.36259 8.33526 6.43527 8.97565 6.44021 10.0266C6.44514 11.1119 6.96675 12.3021 7.47354 13.4535C7.81791 14.2405 8.14511 14.9811 8.32729 15.707C9.00615 18.4152 8.90037 22.035 8.45775 24.0636C8.43565 24.1638 8.4601 24.2689 8.52662 24.3495C8.59338 24.4328 8.69422 24.4816 8.80259 24.4816H17.3511C17.4545 24.4816 17.5479 24.4401 17.6144 24.3667C17.6833 24.2911 17.7129 24.1955 17.703 24.0954C17.6045 23.1789 17.5112 21.4313 17.703 20.1921C17.4644 20.2605 17.238 20.2948 17.0241 20.2948C16.6551 20.2948 16.3133 20.2068 15.9614 20.0725C15.8335 20.0237 15.7696 19.8842 15.8187 19.7572C15.8655 19.6301 16.0082 19.5689 16.1361 19.6154C16.7559 19.8501 17.2627 19.9137 18.0279 19.547C18.3699 19.3856 18.5149 19.1974 19.1644 18.2197C19.8089 17.247 20.3181 15.976 20.6552 15.1327C20.8028 14.7611 20.9184 14.4678 21.007 14.3041C21.0416 14.2405 21.0785 14.177 21.1154 14.1086C21.1695 14.0107 21.2261 13.9056 21.2802 13.8031C20.5299 14.4458 19.4081 15.1278 19.0464 15.2355C19.0264 15.2427 19.0017 15.2499 18.9723 15.2597Z" fill="#F9A70E"/>
<path d="M21.1384 11.0225C20.8334 10.618 20.6285 10.5518 20.5063 10.5283C20.3403 10.7602 20.0987 10.987 19.8742 11.1929C19.7621 11.2968 19.6546 11.3963 19.5813 11.4767C19.3153 11.7628 19.0397 12.0466 18.7615 12.3257C18.2441 12.8813 17.9587 13.1794 17.6172 13.4017C17.5293 13.4584 17.4511 13.5057 17.3805 13.5484C17.173 13.6713 17.117 13.7115 17.0925 13.792C17.0559 13.9054 17.0827 14.116 17.4122 14.4708C17.439 14.5015 17.456 14.5205 17.4609 14.53C17.6757 14.842 17.9319 14.9934 18.249 14.9934C18.4517 14.9934 18.6347 14.9342 18.7713 14.8895C18.803 14.88 18.8324 14.8705 18.8567 14.8635C19.0518 14.8068 19.6205 14.4852 20.1769 14.1067C20.7358 13.7285 21.2797 13.2932 21.4311 13.0142C21.4383 12.9764 21.453 12.941 21.4749 12.9102C21.5628 12.6619 21.5847 12.2622 21.5311 11.8272C21.4996 11.5619 21.4872 11.4814 21.1384 11.0225Z" fill="#F9A70E"/>
<circle cx="14" cy="14" r="13.5" stroke="#F9A70E"/>
</svg>
