<svg width="18" height="18" viewBox="0 0 18 18" fill="none" xmlns="http://www.w3.org/2000/svg">
<g opacity="0.5">
<path fill-rule="evenodd" clip-rule="evenodd" d="M15.4243 3.42417C15.6585 3.18985 15.6585 2.80996 15.4243 2.57565C15.1899 2.34132 14.81 2.34132 14.5756 2.57565L8.99997 8.15137L3.42423 2.57565C3.18991 2.34132 2.81002 2.34132 2.57571 2.57565C2.34138 2.80996 2.34138 3.18985 2.57571 3.42417L8.15143 8.99991L2.57571 14.5756C2.34138 14.8099 2.34138 15.1899 2.57571 15.4242C2.81002 15.6585 3.18991 15.6585 3.42423 15.4242L8.99997 9.84844L14.5756 15.4242C14.81 15.6585 15.1899 15.6585 15.4243 15.4242C15.6585 15.1899 15.6585 14.8099 15.4243 14.5756L9.8485 8.99991L15.4243 3.42417Z" fill="white"/>
</g>
</svg>
