<svg width="33" height="19" viewBox="0 0 33 19" fill="none" xmlns="http://www.w3.org/2000/svg">
<g opacity="0.8">
<path d="M0.153806 0.665082C0.0309543 0.751416 -0.0341347 0.908725 0.0182394 1.04297C0.393995 2.0575 1.14873 3.08681 2.34463 3.51168C3.03366 4.77429 3.85046 5.82065 5.37703 6.20956C6.65639 8.26491 8.41115 8.6661 10.5738 8.90743C11.2594 9.5704 12.2506 9.89135 13.0622 10.1887L13.6293 11.1991C12.4366 12.1571 11.4805 13.2453 10.7706 14.4698C10.7288 14.5591 10.7331 14.6649 10.7821 14.7511C11.5891 16.2037 13.509 17.5544 16.1525 18.574C16.2437 18.6088 16.3506 18.6088 16.4418 18.574C19.0853 17.5544 21.0052 16.2037 21.8122 14.7511C21.8725 14.638 21.8537 14.4943 21.7659 14.3969C20.8677 13.2998 19.9104 12.202 18.9534 11.2303L19.5321 10.1887C20.422 9.9231 21.4598 9.58274 22.0205 8.90747C24.3835 8.7936 25.9196 7.90024 27.2057 6.23043L27.1942 6.22003C27.2016 6.21177 27.2099 6.20753 27.2173 6.1992C28.4511 5.80262 29.5616 4.79679 30.2844 3.48049C31.4085 2.80894 32.1875 2.09219 32.5761 1.04301C32.6179 0.935082 32.5772 0.819144 32.4958 0.733401C32.4016 0.634371 32.2528 0.575619 32.1131 0.615949L19.8909 3.94922C19.7619 3.98539 19.6597 4.08987 19.6363 4.20964C19.5026 4.86585 19.1408 5.47407 18.6409 6.06378C18.2747 5.77569 17.9527 5.55691 17.6571 5.35547C17.3807 5.09901 17.2173 4.65821 17.2173 4.43882C17.2425 4.30337 17.5256 4.21371 17.7034 4.33464C17.8404 4.45646 18.0874 4.45646 18.2243 4.33464C18.5093 4.08698 18.675 3.70458 18.6988 3.43882C18.6988 3.18883 18.5317 3.02637 18.3632 2.91799C17.6919 2.54725 16.8093 2.44238 16.1062 2.43882C14.9146 2.43872 14.3705 2.86552 13.9997 3.19924C13.9089 3.27819 13.868 3.40083 13.8956 3.51174C14.0055 3.90184 14.2256 4.18375 14.2428 4.72005C14.0316 5.04906 13.8259 5.34684 13.6872 5.72003C13.335 5.23481 13.0763 4.73114 12.9581 4.19922C12.9308 4.08319 12.8295 3.98373 12.7034 3.94922L0.481221 0.615949C0.36728 0.574096 0.239095 0.623769 0.153806 0.665082ZM1.1062 1.48047L6.66176 2.99087C6.83596 3.50554 7.02734 4.04758 7.30989 4.44918C7.30989 4.44918 2.24452 3.56097 1.1062 1.48047ZM31.4418 1.49089C30.0119 3.30007 27.479 4.00108 25.2845 4.44918C25.5641 4.05872 25.7742 3.58446 25.921 3.0117C27.7371 2.49385 29.6045 1.99355 31.4418 1.49089ZM16.1062 3.10545C16.8208 3.09692 17.3943 3.20379 17.9465 3.48045C17.9346 3.54232 17.9019 3.62916 17.8423 3.70962C17.5958 3.64346 17.3487 3.63316 17.1363 3.70962C16.8099 3.8271 16.4766 4.04988 16.4766 4.43876C16.4766 4.8832 16.6902 5.42268 17.1479 5.83458C17.4928 6.07845 17.876 6.34227 18.1779 6.57414C17.6425 7.10666 17.0013 7.62495 16.2914 8.14703C15.5148 7.57513 14.8229 7.00655 14.2659 6.41789C14.3277 5.76514 14.5782 5.51878 14.9488 4.92833C14.9781 4.88069 14.9941 4.82652 14.9951 4.77208C14.9951 4.15644 14.8139 3.76806 14.7057 3.53251C15.0933 3.15883 15.495 3.0992 16.1062 3.10545ZM7.51824 3.23045L12.3099 4.53251C12.9085 6.47083 14.2341 7.6314 16.0599 8.8658C16.19 8.95954 16.3927 8.95954 16.5229 8.8658C18.3126 7.57721 19.8332 6.24024 20.2844 4.54293L25.0761 3.23045C24.6239 4.58802 23.2998 5.26909 22.09 5.62626C21.8834 5.66894 21.7508 5.89449 21.8277 6.07225C21.9047 6.25 22.172 6.33526 22.3562 6.24083C22.8896 6.04879 23.3561 5.85939 23.7798 5.6471C23.1095 6.7483 21.8291 7.28795 20.6085 7.62622C20.3982 7.65012 20.2412 7.86267 20.2981 8.04645C20.355 8.23023 20.6115 8.33906 20.8053 8.26164C21.073 8.22148 21.3416 8.17251 21.6155 8.1158C21.5733 8.23345 21.5346 8.35179 21.4997 8.46995C20.8514 9.11576 19.9672 9.34426 19.0923 9.6366C19.0231 9.66826 18.9655 9.72016 18.9303 9.78243L18.2474 11.5012C17.6818 12.1771 17.0869 12.6772 16.2914 13.1782C15.4994 12.6786 14.9101 12.1766 14.3469 11.5012C14.3638 11.4639 13.6641 9.78256 13.6641 9.78243C13.6251 9.71306 13.5583 9.6567 13.4789 9.6262C12.602 9.29737 11.6185 8.96774 11.083 8.43872C11.0501 8.33086 11.0172 8.22298 10.9789 8.1158C11.2452 8.17095 11.5053 8.2221 11.7659 8.26164C11.9542 8.32584 12.1909 8.22207 12.2508 8.04903C12.3107 7.876 12.1813 7.66961 11.9858 7.62622C10.6586 7.27661 9.40221 6.67677 8.81452 5.6471C9.23823 5.85939 9.70467 6.04879 10.2381 6.24083C10.4223 6.33526 10.6896 6.24999 10.7666 6.07225C10.8436 5.89449 10.7109 5.66894 10.5043 5.62626C8.92511 5.11884 7.96455 4.46796 7.51824 3.23045ZM3.47889 4.00128C4.72279 4.49363 6.17566 4.9488 7.84231 5.22001C8.06202 5.91801 8.44475 6.45156 8.93027 6.86583C8.95087 6.87263 4.46826 5.57816 3.47889 4.00128ZM29.0923 4.01168C27.7655 5.60665 25.6581 6.30978 23.6641 6.86581C24.1496 6.45154 24.5323 5.91799 24.752 5.21999C26.4081 4.9505 27.8536 4.50039 29.0923 4.01168ZM6.70805 6.79289C7.7163 7.19313 8.92434 7.60923 10.134 7.91787C10.1635 8.01283 10.199 8.11629 10.2266 8.19912C8.77875 8.04149 7.4048 7.62222 6.70805 6.79289ZM25.5622 6.91789C24.7099 7.79819 23.5906 8.07998 22.3678 8.19912C22.4034 8.0957 22.4297 8.0113 22.4604 7.91787C23.5468 7.64065 24.6227 7.28004 25.5622 6.91789ZM13.803 11.9595C13.8806 12.0515 13.9548 12.1433 14.0344 12.2303L12.1479 15.3448C11.906 15.093 11.7007 14.8436 11.546 14.5948C12.1784 13.6022 12.8423 12.7664 13.803 11.9595ZM18.7219 12.0428L21.0136 14.6261C20.8637 14.861 20.6614 15.097 20.4349 15.3344L18.5599 12.2303C18.6153 12.1698 18.6676 12.1057 18.7219 12.0428V12.0428ZM14.5668 12.7615C14.7578 12.9354 14.9563 13.1016 15.1687 13.2615L14.2428 16.9073C13.6502 16.5678 13.1232 16.2172 12.6918 15.8552L14.5668 12.7615ZM18.0275 12.7615L19.8909 15.8552C19.4622 16.2159 18.9404 16.5689 18.3516 16.9073L17.4256 13.2615C17.6381 13.1016 17.8365 12.9354 18.0275 12.7615ZM15.8284 13.7094C15.9154 13.7647 16.0033 13.8213 16.0946 13.8761C16.2142 13.9464 16.3801 13.9464 16.4997 13.8761C16.591 13.8213 16.6789 13.7647 16.7659 13.7094L17.6803 17.2719C17.2472 17.4906 16.7888 17.7002 16.2914 17.8969C15.798 17.7014 15.3448 17.489 14.9141 17.2719L15.8284 13.7094Z" fill="#F9A70E"/>
</g>
</svg>
