<svg width="24" height="24" viewBox="0 0 24 24" fill="none" xmlns="http://www.w3.org/2000/svg">
<path d="M3.6075 5.95203C3.29009 5.95203 3.02527 5.99855 2.8125 6.10083L11.5125 13.1391C11.8656 13.3105 12.1344 13.3105 12.4875 13.1391L21.1875 6.10083C20.9799 6.00095 20.728 5.95203 20.4225 5.95203H3.6075ZM2.2275 6.84483C2.18564 7.00205 2.16 7.18178 2.16 7.38051V16.4275C2.16 16.6724 2.19348 16.8855 2.2575 17.0674L8.415 11.8743L2.2275 6.84483ZM21.78 6.84483L15.585 11.8743L21.7425 17.0674C21.8076 16.8811 21.84 16.6585 21.84 16.4052V7.35817C21.84 7.16847 21.8197 6.99658 21.78 6.84483V6.84483ZM9.18 12.4843L2.9325 17.7518C3.12512 17.822 3.3567 17.856 3.6225 17.856H20.4075C20.6596 17.856 20.8818 17.8192 21.0675 17.7518L14.82 12.4843C14.1959 12.9833 13.5605 13.5086 12.9375 13.9947C12.343 14.2895 11.657 14.2895 11.0625 13.9947C10.4347 13.5076 9.80446 12.9877 9.18 12.4843V12.4843Z" fill="black"/>
</svg>
