<svg width="23" height="14" viewBox="0 0 23 14" fill="none" xmlns="http://www.w3.org/2000/svg">
<path d="M16.0001 12.6001V11.1001C16.0001 9.90662 15.526 8.76203 14.6821 7.91812C13.8382 7.0742 12.6936 6.6001 11.5001 6.6001C10.3066 6.6001 9.16206 7.0742 8.31814 7.91812C7.47423 8.76203 7.00012 9.90662 7.00012 11.1001V12.6001" stroke="#F9A70E" stroke-linecap="round" stroke-linejoin="round"/>
<path d="M19.0001 12.6001V11.1001C19.0001 9.11097 18.2099 7.20332 16.8034 5.7968C15.3968 4.39027 13.4892 3.6001 11.5001 3.6001C9.51094 3.6001 7.60328 4.39027 6.19676 5.7968C4.79024 7.20332 4.00006 9.11097 4.00006 11.1001V12.6001" stroke="#F9A70E" stroke-linecap="round" stroke-linejoin="round"/>
<path d="M22 12.6001V11.1001C22 8.31532 20.8938 5.64461 18.9246 3.67548C16.9555 1.70634 14.2848 0.600098 11.5 0.600098C8.71523 0.600098 6.04451 1.70634 4.07538 3.67548C2.10625 5.64461 1 8.31532 1 11.1001V12.6001" stroke="#F9A70E" stroke-linecap="round" stroke-linejoin="round"/>
</svg>
