<svg width="26" height="25" viewBox="0 0 26 25" fill="none" xmlns="http://www.w3.org/2000/svg">
<path d="M9.44195 9.30805L20.7081 8.23508L25 12.5L20.7081 16.7649L9.44195 15.6919" stroke="#F9A70E" stroke-linecap="round" stroke-linejoin="round"/>
<path d="M9.37502 12.5002H17.7084" stroke="#F9A70E" stroke-linecap="round" stroke-linejoin="round"/>
<path d="M5.61831 14.0039L1.8024 14.0039C1.70772 14.0039 1.61397 13.9853 1.5265 13.949C1.43903 13.9128 1.35956 13.8597 1.29261 13.7928C1.22566 13.7258 1.17256 13.6463 1.13633 13.5589C1.1001 13.4714 1.08145 13.3776 1.08145 13.283L1.08145 11.7174C1.08145 11.6227 1.1001 11.5289 1.13633 11.4415C1.17256 11.354 1.22566 11.2745 1.29261 11.2076C1.35956 11.1406 1.43903 11.0875 1.5265 11.0513C1.61397 11.0151 1.70772 10.9964 1.8024 10.9964L5.61831 10.9964C5.71299 10.9964 5.80674 10.9778 5.89421 10.9415C5.98168 10.9053 6.06116 10.8522 6.1281 10.7852C6.19505 10.7183 6.24815 10.6388 6.28438 10.5514C6.32062 10.4639 6.33926 10.3701 6.33926 10.2755L6.33926 7.61343C6.33926 7.42223 6.41522 7.23885 6.55043 7.10365C6.68563 6.96844 6.86901 6.89248 7.06021 6.89248H8.67705C8.86826 6.89248 9.05163 6.96844 9.18684 7.10365C9.32204 7.23885 9.398 7.42223 9.398 7.61343V17.3869C9.398 17.5781 9.32204 17.7615 9.18684 17.8967C9.05163 18.0319 8.86826 18.1078 8.67705 18.1078L7.06021 18.1078C6.86901 18.1078 6.68563 18.0319 6.55043 17.8967C6.41522 17.7615 6.33926 17.5781 6.33926 17.3869V14.7249C6.33926 14.5337 6.26331 14.3503 6.1281 14.2151C5.9929 14.0799 5.80952 14.0039 5.61831 14.0039V14.0039Z" stroke="#F9A70E" stroke-linecap="round" stroke-linejoin="round"/>
</svg>
