<svg width="20" height="20" viewBox="0 0 20 20" fill="none" xmlns="http://www.w3.org/2000/svg">
<path d="M5.5 9.90359L12.8391 1.01941L19 1L18.9806 7.16089L10.0964 14.5" stroke="#F9A70E" stroke-linecap="round" stroke-linejoin="round"/>
<path d="M7.75 12.25L13.75 6.25" stroke="#F9A70E" stroke-linecap="round" stroke-linejoin="round"/>
<path d="M6.12787 16.0375L3.38041 18.785C3.31224 18.8532 3.23132 18.9072 3.14225 18.9441C3.05319 18.981 2.95773 19 2.86133 19C2.76492 19 2.66947 18.981 2.5804 18.9441C2.49134 18.9072 2.41041 18.8532 2.34224 18.785L1.21501 17.6578C1.14684 17.5896 1.09277 17.5087 1.05588 17.4196C1.01899 17.3305 1 17.2351 1 17.1387C1 17.0423 1.01899 16.9468 1.05588 16.8577C1.09277 16.7687 1.14684 16.6878 1.21501 16.6196L3.96247 13.8721C4.03064 13.804 4.08471 13.723 4.1216 13.634C4.15849 13.5449 4.17748 13.4494 4.17748 13.353C4.17748 13.2566 4.15849 13.1612 4.1216 13.0721C4.08471 12.9831 4.03064 12.9021 3.96247 12.834L2.04581 10.9173C1.90814 10.7796 1.8308 10.5929 1.8308 10.3982C1.8308 10.2035 1.90814 10.0168 2.04581 9.87913L3.20993 8.71501C3.3476 8.57734 3.53432 8.5 3.72902 8.5C3.92371 8.5 4.11043 8.57734 4.2481 8.71501L11.285 15.7519C11.4227 15.8896 11.5 16.0763 11.5 16.271C11.5 16.4657 11.4227 16.6524 11.285 16.7901L10.1209 17.9542C9.9832 18.0919 9.79648 18.1692 9.60178 18.1692C9.40709 18.1692 9.22037 18.0919 9.0827 17.9542L7.16604 16.0375C7.02837 15.8999 6.84165 15.8225 6.64695 15.8225C6.45226 15.8225 6.26554 15.8999 6.12787 16.0375V16.0375Z" stroke="#F9A70E" stroke-linecap="round" stroke-linejoin="round"/>
</svg>
