<svg width="48" height="48" viewBox="0 0 48 48" fill="none" xmlns="http://www.w3.org/2000/svg">
<path fill-rule="evenodd" clip-rule="evenodd" d="M23.501 44.125C34.517 44.125 43.501 35.141 43.501 24.125C43.501 13.11 34.517 4.125 23.501 4.125C12.485 4.125 3.50101 13.11 3.50101 24.125C3.50101 35.141 12.485 44.125 23.501 44.125Z" fill="#4CAF50"/>
<path fill-rule="evenodd" clip-rule="evenodd" d="M43.252 27.114C39.718 25.992 38.055 19.625 34 11L27 12.077C28.615 16.982 35.781 28.949 27.728 30.93C20.825 32.722 17.573 20.519 15 14L7 16L17.178 43.081C19.169 43.751 21.29 44.125 23.501 44.125C24.483 44.125 25.442 44.031 26.386 43.893L21.943 35.517C28.811 37.069 34.251 34.648 34.905 29.314C36.632 31.604 38.994 32.497 41.639 32.486C42.419 30.807 42.965 29.006 43.252 27.114Z" fill="white"/>
</svg>
