<svg width="24" height="24" viewBox="0 0 24 24" fill="none" xmlns="http://www.w3.org/2000/svg">
<path d="M12.8437 17.0157C13.0781 16.9688 13.5 16.8751 13.5 16.3126C13.5 16.3126 13.4531 14.9063 14.1094 14.7188C14.7656 14.5313 15.6094 16.0782 16.5 16.6876C17.1562 17.1094 17.6719 17.0626 17.6719 17.0626L20.0625 17.0157C20.0625 17.0157 21.2812 16.9219 20.7187 15.9376C20.6719 15.8438 20.2969 15.2344 18.8906 13.9688C17.4375 12.5626 17.6719 12.7969 19.4062 10.4063C20.4844 8.95319 20.9531 8.06257 20.8125 7.73445C20.625 7.40632 19.875 7.4532 19.875 7.4532H17.2031C16.9219 7.4532 16.7812 7.50007 16.6406 7.73445C16.6406 7.73445 16.2187 8.90632 15.6562 9.84382C14.4844 11.8594 14.0156 11.9532 13.7812 11.8126C13.3594 11.5782 13.4531 10.6876 13.4531 10.0782C13.4531 7.96882 13.7812 7.21882 12.8437 7.03132C12.2344 6.93757 10.0781 6.84382 9.42186 7.17195C9.09374 7.35945 8.90624 7.68757 9.04686 7.73445C9.18749 7.73445 9.60936 7.78132 9.84374 8.06257C10.2187 8.67194 10.2656 11.5782 9.74999 11.8594C9.04686 12.3751 7.26561 8.95319 6.84374 7.8282C6.74999 7.54695 6.60936 7.50007 6.28124 7.40632H3.70311C3.42186 7.40632 2.99999 7.4532 3.18749 8.0157C4.45311 10.6407 7.07811 17.0626 11.8125 17.0157H12.8437Z" fill="#1B1914"/>
</svg>
