<svg width="48" height="48" viewBox="0 0 48 48" fill="none" xmlns="http://www.w3.org/2000/svg">
<path d="M46.023 15.9081C44.151 13.8431 39.623 13.1881 36.326 12.9811C34.864 12.8871 33.407 12.6311 31.993 12.2191C31.354 12.0411 30.715 11.8161 30.091 11.5741C27.319 10.4741 22.746 9.41606 17.811 11.4361C17.654 11.5051 17.501 11.5591 17.358 11.6341C17.206 11.6891 17.052 11.7671 16.895 11.8361C12.069 14.0821 9.73099 18.1591 8.65499 20.9421C8.40899 21.5641 8.13999 22.1861 7.83599 22.7761C7.17999 24.0931 6.38699 25.3321 5.46299 26.4691C3.37099 29.0191 0.784994 32.7821 1.01499 35.5541C1.05199 36.0421 1.17599 36.5021 1.41099 36.9141C1.86799 37.7331 2.60799 38.1651 3.17599 38.4321C7.31399 40.4121 16.904 39.4121 27.206 34.1661C38.053 30.1701 45.301 23.8121 46.65 19.4341C46.84 18.8361 47.025 17.9991 46.736 17.1081C46.597 16.6651 46.347 16.2711 46.023 15.9081Z" fill="#263238"/>
<path fill-rule="evenodd" clip-rule="evenodd" d="M46.681 16.918C48.786 21.631 40.262 29.9221 27.728 35.4001C15.194 40.8781 2.98401 41.6301 1.28901 36.7551C0.0850055 33.2931 8.103 24.0501 20.637 18.5731C33.171 13.0961 45.258 13.732 46.681 16.918Z" fill="#2962FF"/>
<path fill-rule="evenodd" clip-rule="evenodd" d="M14.073 33.9799C13.192 31.9639 17.584 28.0989 23.884 25.3449C30.184 22.5909 36.004 21.9949 36.885 24.0109C37.766 26.0269 33.374 29.8919 27.074 32.6459C20.774 35.3999 14.954 35.9969 14.073 33.9799Z" fill="white"/>
</svg>
